<svg width="23" height="23" viewBox="0 0 23 23" fill="none" xmlns="http://www.w3.org/2000/svg">
<g clip-path="url(#clip0_61_369)">
<path d="M11.5 0C5.15882 0 0 5.15882 0 11.5C0 17.8412 5.15882 23 11.5 23C17.8412 23 23 17.8412 23 11.5C23 5.15882 17.8412 0 11.5 0ZM11.5 21.3572C6.0648 21.3572 1.64281 16.9352 1.64281 11.5C1.64281 6.0648 6.0648 1.64281 11.5 1.64281C16.9352 1.64281 21.3572 6.0648 21.3572 11.5C21.3572 16.9352 16.9352 21.3572 11.5 21.3572Z" fill="#767272"/>
<path d="M15.607 6.57138C15.3968 6.57138 15.1866 6.65158 15.0262 6.81214L6.812 15.0263C6.49105 15.3473 6.49105 15.8671 6.812 16.1878C7.13277 16.5086 7.6527 16.5088 7.97347 16.1878L16.1877 7.97361C16.5086 7.65267 16.5086 7.13291 16.1877 6.81214C16.0273 6.65158 15.8173 6.57138 15.607 6.57138Z" fill="#767272"/>
<path d="M7.39265 6.57138C7.18243 6.57138 6.97238 6.65157 6.812 6.81213C6.49105 7.1329 6.49105 7.65284 6.812 7.97361L15.0262 16.1878C15.3472 16.5088 15.8669 16.5088 16.1877 16.1878C16.5085 15.867 16.5086 15.3471 16.1877 15.0263L7.97347 6.81213C7.81309 6.65157 7.60287 6.57138 7.39265 6.57138Z" fill="#767272"/>
</g>
<defs>
<clipPath id="clip0_61_369">
<rect width="23" height="23" fill="white" transform="matrix(1 0 0 -1 0 23)"/>
</clipPath>
</defs>
</svg>
