<svg width="24" height="24" viewBox="0 0 24 24" fill="none" xmlns="http://www.w3.org/2000/svg">
<path d="M21.5625 12C21.5625 10.4092 21.1657 8.84347 20.4079 7.44472C19.6502 6.04597 18.5554 4.85837 17.2228 3.9895C15.8903 3.12062 14.362 2.59793 12.7764 2.46877C11.1908 2.33961 9.5981 2.60805 8.14246 3.24979C6.68683 3.89154 5.41429 4.88629 4.44013 6.14396C3.46596 7.40162 2.82096 8.88245 2.56353 10.4523C2.30611 12.0222 2.4444 13.6314 2.96588 15.1343C3.48736 16.6373 4.37555 17.9863 5.55 19.0594L5.6625 19.1531C7.40911 20.7043 9.66399 21.5611 12 21.5611C14.336 21.5611 16.5909 20.7043 18.3375 19.1531L18.45 19.0594C19.4316 18.1641 20.2154 17.0738 20.7514 15.8582C21.2873 14.6426 21.5636 13.3285 21.5625 12ZM3.5625 12C3.56062 10.6225 3.896 9.26557 4.53936 8.0476C5.18272 6.82962 6.11448 5.78768 7.25329 5.01276C8.39209 4.23785 9.7033 3.75353 11.0724 3.60209C12.4415 3.45066 13.8269 3.63672 15.1075 4.14403C16.3881 4.65134 17.5251 5.46447 18.4191 6.51241C19.313 7.56034 19.9369 8.81121 20.2361 10.1558C20.5352 11.5003 20.5007 12.8977 20.1354 14.2259C19.7702 15.554 19.0853 16.7725 18.1406 17.775C17.2546 16.4044 15.934 15.371 14.3906 14.8406C15.1611 14.3274 15.746 13.58 16.0588 12.7087C16.3716 11.8374 16.3958 10.8886 16.1277 10.0026C15.8597 9.1165 15.3136 8.34022 14.5702 7.7885C13.8269 7.23677 12.9257 6.93889 12 6.93889C11.0743 6.93889 10.1731 7.23677 9.42978 7.7885C8.68643 8.34022 8.14035 9.1165 7.87228 10.0026C7.60421 10.8886 7.62837 11.8374 7.9412 12.7087C8.25402 13.58 8.83891 14.3274 9.60938 14.8406C8.06596 15.371 6.74537 16.4044 5.85938 17.775C4.38276 16.215 3.56069 14.148 3.5625 12ZM8.8125 11.25C8.8125 10.6196 8.99944 10.0033 9.34969 9.47911C9.69994 8.95493 10.1978 8.54638 10.7802 8.30512C11.3626 8.06387 12.0035 8.00075 12.6219 8.12374C13.2402 8.24673 13.8081 8.55031 14.2539 8.99609C14.6997 9.44187 15.0033 10.0098 15.1263 10.6281C15.2492 11.2465 15.1861 11.8874 14.9449 12.4698C14.7036 13.0522 14.2951 13.5501 13.7709 13.9003C13.2467 14.2505 12.6304 14.4375 12 14.4375C11.1554 14.435 10.3461 14.0984 9.74883 13.5012C9.15159 12.9039 8.81497 12.0946 8.8125 11.25ZM6.69375 18.5625C7.2452 17.6483 8.02349 16.8921 8.95316 16.3672C9.88284 15.8422 10.9324 15.5664 12 15.5664C13.0676 15.5664 14.1172 15.8422 15.0468 16.3672C15.9765 16.8921 16.7548 17.6483 17.3063 18.5625C15.8038 19.7756 13.931 20.4372 12 20.4372C10.069 20.4372 8.19622 19.7756 6.69375 18.5625Z" fill="#07000D"/>
</svg>
